<svg width="375" height="812" viewBox="0 0 375 812" fill="none" xmlns="http://www.w3.org/2000/svg">
<g clip-path="url(#clip0_722_5079)">
<rect width="375" height="812" fill="white"/>
<g clip-path="url(#clip1_722_5079)">
<ellipse cx="30.5" cy="32" rx="159.5" ry="184" fill="#D6484D"/>
<rect x="263" width="112" height="112" fill="#B1D7DA"/>
<rect x="-285" y="484.535" width="620.182" height="620.182" transform="rotate(-45 -285 484.535)" fill="#D6484D"/>
<rect x="69.6299" y="-1" width="40" height="354.444" transform="rotate(45 69.6299 -1)" fill="#203754"/>
<rect x="308.025" y="33.2581" width="249.686" height="122" transform="rotate(45 308.025 33.2581)" fill="#B1D7DA"/>
<rect x="90.8105" y="-4.56042" width="188.933" height="209.56" transform="rotate(-45 90.8105 -4.56042)" fill="#B1D7DA"/>
<rect x="302" y="130.426" width="105.842" height="107.886" transform="rotate(-45 302 130.426)" fill="#203754"/>
<rect x="213" y="-0.0739746" width="114.447" height="114.447" transform="rotate(-45 213 -0.0739746)" fill="#203754"/>
<path d="M293.926 -0.0739746V-81L374.852 -0.0739746L293.926 80.852V-0.0739746Z" fill="#ED7F67"/>
</g>
<path d="M0 261H375V812H0V261Z" fill="white"/>
<g clip-path="url(#clip2_722_5079)">
<rect x="65.1831" y="4.00464" width="40" height="448.417" transform="rotate(-45 65.1831 4.00464)" fill="#203754"/>
</g>
<g clip-path="url(#clip3_722_5079)">
<ellipse cx="344.5" cy="780" rx="159.5" ry="184" transform="rotate(-180 344.5 780)" fill="#D6484D"/>
<rect x="112" y="812" width="112" height="112" transform="rotate(-180 112 812)" fill="#B1D7DA"/>
<rect x="660" y="327.465" width="620.182" height="620.182" transform="rotate(135 660 327.465)" fill="#D6484D"/>
<rect x="305.37" y="813" width="40" height="354.444" transform="rotate(-135 305.37 813)" fill="#203754"/>
<rect x="66.9751" y="778.742" width="249.686" height="122" transform="rotate(-135 66.9751 778.742)" fill="#B1D7DA"/>
<rect x="284.189" y="816.56" width="188.933" height="209.56" transform="rotate(135 284.189 816.56)" fill="#B1D7DA"/>
<rect x="73" y="681.574" width="105.842" height="107.886" transform="rotate(135 73 681.574)" fill="#203754"/>
<rect x="162" y="812.074" width="114.447" height="114.447" transform="rotate(135 162 812.074)" fill="#203754"/>
<path d="M81.074 812.074V893L0.14798 812.074L81.074 731.148V812.074Z" fill="#ED7F67"/>
</g>
<path d="M375 551H0V321H375V551Z" fill="white"/>
<g clip-path="url(#clip4_722_5079)">
<rect x="309.817" y="807.995" width="40" height="448.417" transform="rotate(135 309.817 807.995)" fill="#203754"/>
</g>
<rect x="-43" y="261" width="190.919" height="190.919" transform="rotate(-45 -43 261)" fill="#203754"/>
<path d="M91.9999 261V126L227 261L91.9999 396V261Z" fill="#ED7F67"/>
<rect x="418" y="551" width="190.919" height="190.919" transform="rotate(135 418 551)" fill="#203754"/>
<path d="M283 551V686L148 551L283 416V551Z" fill="#ED7F67"/>
<path d="M146.067 503.595L145.219 502.747L146.576 499.862C147.255 498.278 147.595 496.864 147.595 495.619C147.538 494.318 147.114 492.876 146.322 491.292L113.653 423.664L120.866 416.452L188.578 449.714C190.275 450.506 191.746 450.958 192.991 451.071C194.179 451.128 195.593 450.789 197.233 450.053L198.591 449.374L199.44 450.223L177.887 471.776L177.038 470.927L177.887 469.23C178.622 467.59 178.707 466.26 178.142 465.242C177.576 464.111 176.558 463.149 175.087 462.357L158.88 454.126L140.043 472.964L147.934 489.001C148.782 490.641 149.631 491.773 150.48 492.395C151.385 492.961 152.657 492.876 154.298 492.14L156.928 491.037L157.777 491.886L146.067 503.595ZM138.94 470.672L156.674 452.938L121.714 435.119L138.94 470.672ZM202.111 447.551L201.263 446.703L202.451 444.327C203.186 442.8 203.412 441.555 203.129 440.594C202.79 439.575 202.026 438.472 200.838 437.284L156.46 392.906C155.329 391.775 154.282 391.068 153.321 390.785C152.359 390.389 151.143 390.53 149.672 391.209L146.957 392.397L146.108 391.549L170.376 367.281C177.051 360.606 183.444 356.759 189.553 355.741C195.606 354.666 200.867 356.363 205.336 360.832C207.825 363.321 209.38 366.743 210.002 371.099C210.625 375.455 209.606 380.32 206.948 385.694L242.162 397.319C243.632 397.771 244.99 397.997 246.235 397.997C247.479 397.884 248.865 397.517 250.392 396.894L251.92 396.215L252.683 396.979L237.495 412.168L198.208 397.997L192.438 403.767L213.397 424.726C214.471 425.801 215.518 426.508 216.536 426.847C217.554 427.187 218.771 426.989 220.185 426.253L222.985 424.981L223.833 425.829L202.111 447.551ZM190.741 402.07L194.814 397.997C198.887 393.924 200.753 389.908 200.414 385.948C200.018 381.932 197.67 377.774 193.371 373.475C189.016 369.119 184.943 366.743 181.152 366.347C177.306 365.895 173.374 367.677 169.358 371.693L164.861 376.19L190.741 402.07ZM271.292 380.916C267.672 384.537 263.938 386.46 260.091 386.686C256.301 386.856 252.426 384.961 248.467 381.001L219.447 351.981L213.592 357.836L212.744 356.988L214.441 354.612C215.798 352.462 216.732 350.397 217.241 348.417C217.806 346.381 218.089 344.118 218.089 341.629L217.326 326.95L218.174 326.101L229.799 338.235L239.303 328.732L241 330.429L231.411 340.017L261.958 370.564C263.938 372.544 265.861 373.619 267.728 373.788C269.652 373.902 271.292 373.279 272.65 371.922C273.838 370.734 274.601 369.404 274.941 367.934C275.224 366.406 275.308 364.681 275.195 362.758L276.892 362.758C277.684 365.812 277.656 368.895 276.807 372.007C275.959 375.118 274.12 378.088 271.292 380.916Z" fill="#203754"/>
</g>
<defs>
<clipPath id="clip0_722_5079">
<rect width="375" height="812" fill="white"/>
</clipPath>
<clipPath id="clip1_722_5079">
<rect width="375" height="329" fill="white"/>
</clipPath>
<clipPath id="clip2_722_5079">
<rect width="375" height="325" fill="white"/>
</clipPath>
<clipPath id="clip3_722_5079">
<rect width="375" height="329" fill="white" transform="translate(375 812) rotate(-180)"/>
</clipPath>
<clipPath id="clip4_722_5079">
<rect width="375" height="325" fill="white" transform="translate(375 812) rotate(-180)"/>
</clipPath>
</defs>
</svg>
